<svg width="50" height="75" viewBox="0 0 50 75" fill="none" xmlns="http://www.w3.org/2000/svg">
<path d="M13.0525 74.2884C19.8201 74.2884 25.3126 68.796 25.3126 62.0283V49.7678H13.0525C6.28483 49.7678 0.791992 55.2607 0.791992 62.0283C0.791992 68.796 6.28483 74.2884 13.0525 74.2884Z" fill="#0ACF83"/>
<path d="M0.791992 37.505C0.791992 30.7373 6.28483 25.2449 13.0525 25.2449H25.3126V49.7651H13.0525C6.28483 49.7651 0.791992 44.2726 0.791992 37.505Z" fill="#A259FF"/>
<path d="M0.792236 12.986C0.792236 6.2183 6.28507 0.72583 13.0527 0.72583H25.3128V25.2464H13.0527C6.28507 25.2464 0.792236 19.7536 0.792236 12.986Z" fill="#F24E1E"/>
<path d="M25.3115 0.72583H37.5716C44.3393 0.72583 49.8321 6.2183 49.8321 12.986C49.8321 19.7536 44.3393 25.2464 37.5716 25.2464H25.3115V0.72583Z" fill="#FF7262"/>
<path d="M49.8321 37.505C49.8321 44.2726 44.3393 49.7651 37.5716 49.7651C30.804 49.7651 25.3115 44.2726 25.3115 37.505C25.3115 30.7373 30.804 25.2449 37.5716 25.2449C44.3393 25.2449 49.8321 30.7373 49.8321 37.505Z" fill="#1ABCFE"/>
</svg>
