<svg width="115" height="113" viewBox="0 0 115 113" fill="none" xmlns="http://www.w3.org/2000/svg">
<path d="M68.6232 0.759521C82.5033 0.759521 93.5771 4.71661 101.85 12.6207C110.117 20.5298 114.256 31.0737 114.256 44.2421C114.256 57.4105 110.087 68.0654 101.744 75.9039C93.4005 83.7423 82.1702 87.659 68.0478 87.659C62.0516 87.659 56.5248 86.9272 51.4725 85.4584C46.4201 83.9947 41.6453 81.7688 37.1431 78.7859V112.32H0V0.759521H68.6232Z" fill="white"/>
<path d="M29.9378 60.4823C33.1226 61.4009 36.368 62.1176 39.6437 62.6425C42.8891 63.1624 46.1598 63.5056 49.4406 63.7378C52.2973 63.9397 55.361 63.9599 57.9705 62.6122C59.0961 62.0318 60.0399 61.1889 60.6405 60.0633C61.1604 59.0892 61.4531 57.893 61.1049 56.8129C60.7213 55.6217 59.6412 54.8848 58.445 54.6678C57.0368 54.4103 55.5831 54.6778 54.185 54.8495C53.7661 54.8999 53.3421 54.9504 52.9232 55.0059L53.1756 55.2583C53.3573 53.5624 54.2153 52.0381 54.4929 50.3624C54.6241 49.5902 54.6292 48.7927 54.392 48.0356C54.1699 47.3239 53.7661 46.6779 53.2563 46.1328C52.1207 44.9214 50.5358 44.3006 48.9308 44.0179C48.0475 43.8615 47.144 43.7908 46.2507 43.7454C45.5844 43.7151 44.9131 43.7252 44.2469 43.811C42.8387 43.9927 41.3346 44.5529 40.739 45.9561C40.6128 46.2539 41.0519 46.5164 41.1781 46.2135C41.6677 45.0577 42.8387 44.558 44.0096 44.3561C45.4027 44.1189 46.8967 44.235 48.2847 44.4268C49.8544 44.6438 51.4393 45.1233 52.6254 46.2236C53.1352 46.6981 53.5642 47.2684 53.8166 47.9195C54.0891 48.6312 54.1295 49.3984 54.0134 50.1454C53.7459 51.8968 52.8525 53.4867 52.6658 55.2583C52.6506 55.3845 52.792 55.5308 52.9181 55.5107C54.3617 55.334 55.8254 55.0564 57.2841 55.0715C58.4752 55.0816 59.7774 55.3895 60.4134 56.4999C60.9535 57.4387 60.7667 58.6198 60.3225 59.5586C59.8027 60.6589 58.9547 61.4917 57.8897 62.0722C55.4468 63.4097 52.5194 63.4248 49.809 63.2532C46.6696 63.0564 43.5302 62.7233 40.421 62.2488C36.9283 61.7138 33.4658 60.9718 30.069 59.9876C29.751 59.8968 29.6198 60.3864 29.9327 60.4772L29.9378 60.4823Z" fill="#1E3932" fill-opacity="0.5"/>
<path d="M30.0752 59.9889C25.5124 58.4848 23.8519 53.0639 24.084 48.7081C24.3515 43.6356 26.7187 38.8255 29.9036 34.9492C33.2348 30.8962 37.4846 27.6508 42.0525 25.1019C47.2108 22.2198 52.8537 20.105 58.6631 19.0249C64.5332 17.9347 70.6556 17.9599 76.4246 19.5751C81.3407 20.953 85.858 23.5978 89.4871 27.1965C93.0101 30.6892 95.7053 35.0905 96.8056 39.9561C97.9463 44.9782 97.2397 50.2677 94.5495 54.6942C92.2177 58.5251 88.311 61.715 83.6877 61.9674C81.9413 62.0633 80.1344 61.7201 78.6909 60.6955C77.0959 59.5649 76.2682 57.7226 76.0713 55.8198C76.0007 55.1232 75.9956 54.4368 76.147 53.7504C76.3136 52.9983 76.6063 52.2816 76.8991 51.5699C77.0253 51.2671 76.5306 51.1359 76.4095 51.4337C76.0965 52.2059 75.7786 52.9882 75.6171 53.811C75.4808 54.5075 75.4909 55.2091 75.5716 55.9157C75.6877 56.9403 75.9552 57.9497 76.4398 58.8684C77.2928 60.4835 78.7868 61.6191 80.523 62.134C84.5962 63.3453 88.9773 61.5081 91.9451 58.727C95.8265 55.093 97.9362 49.7024 97.8504 44.4179C97.7697 39.2999 95.8467 34.3586 92.8183 30.2703C89.7293 26.1063 85.5401 22.7498 80.8107 20.6249C75.3899 18.1921 69.2978 17.435 63.4076 17.8893C57.1792 18.3738 51.0972 20.1656 45.4493 22.7952C40.4626 25.1221 35.7484 28.1555 31.8418 32.0571C28.132 35.7618 25.1591 40.3296 24.0285 45.498C23.4985 47.9207 23.3774 50.399 23.9023 52.8318C24.3818 55.0728 25.4014 57.2986 27.1326 58.8532C27.9503 59.5851 28.8992 60.1352 29.9389 60.4784C30.2518 60.5794 30.3831 60.0898 30.0752 59.9889Z" fill="#1E3932" fill-opacity="0.5"/>
<path d="M83.5166 49.0484C82.6434 49.7702 82.7241 51.138 83.3248 52.0061C84.0617 53.0711 85.4194 53.4395 86.6257 53.6768C86.9437 53.7373 87.085 53.2477 86.762 53.1872C85.7273 52.9853 84.5109 52.7077 83.8244 51.8345C83.2844 51.1481 83.1481 50.0124 83.8749 49.4118C84.1273 49.2049 83.7639 48.8465 83.5166 49.0534V49.0484Z" fill="#1E3932" fill-opacity="0.5"/>
<path d="M60.8658 51.3634C63.6166 49.3142 67.0235 48.224 70.4506 48.2694C71.4247 48.2795 72.3938 48.3855 73.3528 48.5874C73.6708 48.653 73.8121 48.1635 73.4891 48.0978C70.0216 47.3761 66.3572 47.8455 63.1673 49.3799C62.2689 49.8139 61.4159 50.3287 60.6134 50.9294C60.356 51.1212 60.6084 51.5653 60.8708 51.3685L60.8658 51.3634Z" fill="#1E3932" fill-opacity="0.5"/>
<path d="M22.7883 41.9092C20.5019 42.5451 19.0079 44.5843 17.953 46.588C16.7366 48.9048 15.8583 51.4183 15.4546 54.0076C15.0558 56.5615 15.1113 59.2013 15.823 61.6946C16.459 63.9205 17.63 65.9394 19.2653 67.5848C20.7997 69.1243 22.7126 70.3255 24.8072 70.9262C26.8413 71.5116 29.2438 71.5773 31.1921 70.6486C32.1258 70.2044 32.9788 69.4271 33.1555 68.3621C33.3473 67.2164 32.7315 66.1211 31.8886 65.3893C30.9145 64.5413 29.6577 64.193 28.4312 63.8751C27.2198 63.5621 26.059 63.2139 24.9889 62.5476C23.1164 61.3766 21.6628 59.5293 20.9713 57.4297C20.0981 54.7798 20.6583 52.0189 21.5012 49.4347C21.7233 48.7584 21.9605 48.0921 22.2028 47.4259C22.3139 47.118 21.8243 46.9817 21.7132 47.2896C20.7694 49.9041 19.7902 52.6599 20.0527 55.4915C20.2495 57.6164 21.1833 59.6252 22.6066 61.205C23.3233 62.0025 24.1763 62.6889 25.1101 63.2088C26.165 63.7994 27.3056 64.1072 28.4665 64.4101C29.6476 64.718 30.869 65.0713 31.7523 65.9647C32.5296 66.752 32.9889 67.923 32.4034 68.9577C31.8836 69.8713 30.8085 70.3558 29.8293 70.593C28.8501 70.8303 27.7599 70.8959 26.7202 70.7899C24.6205 70.5779 22.6116 69.6744 20.946 68.4025C19.2451 67.1053 17.8621 65.3842 16.9789 63.4359C15.9442 61.1596 15.5908 58.5956 15.7271 56.1123C15.8634 53.5786 16.5044 51.0801 17.4886 48.7483C17.958 47.6328 18.4981 46.5325 19.1643 45.513C19.77 44.5843 20.5069 43.701 21.4407 43.0852C21.8949 42.7824 22.3845 42.5552 22.9094 42.4139C23.2274 42.3281 23.0911 41.8335 22.7732 41.9243L22.7883 41.9092Z" fill="#1E3932" fill-opacity="0.5"/>
<path d="M82.4066 37.5695C79.5246 39.4925 77.3896 42.4755 76.5063 45.8269C76.4003 46.2307 76.3094 46.6395 76.2438 47.0484C76.1681 47.5177 76.0975 48.0124 76.264 48.4717C76.4911 49.1026 77.0665 49.461 77.7126 49.5569C78.4091 49.6629 79.146 49.5367 79.8022 49.2994C80.6501 48.9966 81.4678 48.5827 82.2501 48.1386C84.0924 47.1039 85.763 45.7663 87.1813 44.1966C87.3984 43.9543 87.04 43.5909 86.823 43.8383C85.652 45.1354 84.3094 46.266 82.8356 47.1998C82.1088 47.6591 81.3466 48.073 80.5643 48.4313C79.9082 48.7341 79.2318 49.0118 78.505 49.0723C77.9549 49.1177 77.2583 49.0673 76.9 48.5827C76.6476 48.2446 76.6527 47.8004 76.7082 47.4017C76.7637 47.0029 76.8495 46.589 76.9454 46.1903C77.329 44.6408 77.9851 43.1619 78.8684 41.8345C79.8678 40.3253 81.1649 39.0181 82.669 38.0137C82.9416 37.832 82.6842 37.3929 82.4116 37.5746L82.4066 37.5695Z" fill="#1E3932" fill-opacity="0.5"/>
<path d="M95.9989 53.7373C95.368 55.2515 96.4128 56.9272 97.7857 57.5934C99.3402 58.3555 101.092 57.7196 102.207 56.4931C105.129 53.2729 103.136 48.4881 101.415 45.1922C100.335 43.1177 99.0021 41.1745 97.4626 39.413C97.2456 39.1657 96.8872 39.5291 97.1043 39.7714C98.361 41.2098 99.4715 42.7745 100.42 44.43C101.369 46.0855 102.242 47.9228 102.777 49.8004C103.277 51.5669 103.434 53.5505 102.505 55.206C101.793 56.483 100.37 57.6489 98.8153 57.3966C97.2658 57.1391 95.8323 55.4483 96.4935 53.8685C96.6197 53.5657 96.1251 53.4344 96.004 53.7322L95.9989 53.7373Z" fill="#1E3932" fill-opacity="0.5"/>
</svg>
