<svg width="115" height="113" viewBox="0 0 115 113" fill="none" xmlns="http://www.w3.org/2000/svg">
<path d="M68.6232 0.766724C82.5033 0.766724 93.5771 4.72381 101.85 12.6279C110.117 20.537 114.256 31.0809 114.256 44.2493C114.256 57.4177 110.087 68.0726 101.744 75.9111C93.4005 83.7495 82.1702 87.6662 68.0478 87.6662C62.0516 87.6662 56.5248 86.9344 51.4725 85.4656C46.4201 84.0019 41.6453 81.776 37.1431 78.7931V112.327H0V0.766724H68.6232Z" fill="#1E3932"/>
<path d="M29.9358 60.4913C33.1207 61.4099 36.3661 62.1266 39.6418 62.6515C42.8872 63.1714 46.1578 63.5146 49.4386 63.7468C52.2954 63.9487 55.3591 63.9689 57.9685 62.6213C59.0941 62.0408 60.0379 61.1979 60.6386 60.0724C61.1584 59.0982 61.4512 57.902 61.1029 56.8219C60.7193 55.6307 59.6392 54.8938 58.443 54.6768C57.0348 54.4194 55.5812 54.6869 54.1831 54.8585C53.7641 54.909 53.3402 54.9594 52.9212 55.015L53.1736 55.2673C53.3553 53.5714 54.2134 52.0471 54.491 50.3714C54.6222 49.5992 54.6272 48.8017 54.39 48.0446C54.1679 47.333 53.7641 46.6869 53.2544 46.1418C52.1187 44.9304 50.5339 44.3096 48.9288 44.027C48.0455 43.8705 47.1421 43.7998 46.2487 43.7544C45.5825 43.7241 44.9112 43.7342 44.2449 43.82C42.8367 44.0017 41.3326 44.562 40.737 45.9651C40.6109 46.2629 41.05 46.5254 41.1762 46.2225C41.6657 45.0667 42.8367 44.567 44.0077 44.3651C45.4008 44.1279 46.8948 44.244 48.2828 44.4358C49.8525 44.6528 51.4373 45.1323 52.6235 46.2326C53.1332 46.7071 53.5623 47.2774 53.8146 47.9285C54.0872 48.6402 54.1276 49.4074 54.0115 50.1544C53.744 51.9058 52.8506 53.4957 52.6638 55.2673C52.6487 55.3935 52.79 55.5399 52.9162 55.5197C54.3597 55.343 55.8234 55.0654 57.2821 55.0806C58.4733 55.0907 59.7755 55.3986 60.4114 56.509C60.9515 57.4478 60.7648 58.6288 60.3206 59.5676C59.8007 60.6679 58.9528 61.5008 57.8878 62.0812C55.4449 63.4187 52.5175 63.4339 49.8071 63.2623C46.6676 63.0654 43.5282 62.7323 40.4191 62.2578C36.9263 61.7228 33.4639 60.9809 30.067 59.9967C29.749 59.9058 29.6178 60.3954 29.9308 60.4862L29.9358 60.4913Z" fill="white"/>
<path d="M30.0713 59.9979C25.5085 58.4938 23.848 53.073 24.0801 48.7172C24.3476 43.6446 26.7148 38.8345 29.8997 34.9582C33.2309 30.9052 37.4807 27.6598 42.0485 25.1109C47.2069 22.2289 52.8498 20.1141 58.6592 19.0339C64.5293 17.9437 70.6516 17.969 76.4207 19.5841C81.3368 20.962 85.8541 23.6068 89.4831 27.2055C93.0062 30.6983 95.7014 35.0995 96.8017 39.9651C97.9424 44.9872 97.2358 50.2768 94.5456 54.7033C92.2137 58.5342 88.3071 61.7241 83.6838 61.9764C81.9374 62.0723 80.1305 61.7291 78.687 60.7045C77.092 59.5739 76.2643 57.7316 76.0674 55.8288C75.9967 55.1323 75.9917 54.4458 76.1431 53.7594C76.3097 53.0074 76.6024 52.2906 76.8952 51.579C77.0214 51.2761 76.5267 51.1449 76.4056 51.4427C76.0926 52.2149 75.7747 52.9973 75.6131 53.82C75.4769 54.5165 75.487 55.2181 75.5677 55.9247C75.6838 56.9493 75.9513 57.9588 76.4359 58.8774C77.2889 60.4925 78.7829 61.6282 80.5191 62.143C84.5923 63.3543 88.9734 61.5171 91.9412 58.7361C95.8226 55.102 97.9323 49.7115 97.8465 44.4269C97.7658 39.309 95.8428 34.3677 92.8144 30.2793C89.7254 26.1153 85.5362 22.7588 80.8068 20.6339C75.386 18.2011 69.2939 17.444 63.4037 17.8983C57.1753 18.3828 51.0933 20.1746 45.4454 22.8043C40.4586 25.1311 35.7445 28.1645 31.8378 32.0661C28.1281 35.7708 25.1552 40.3386 24.0246 45.5071C23.4946 47.9298 23.3735 50.408 23.8984 52.8408C24.3779 55.0818 25.3975 57.3077 27.1287 58.8622C27.9464 59.5941 28.8953 60.1443 29.935 60.4875C30.2479 60.5884 30.3792 60.0988 30.0713 59.9979Z" fill="white"/>
<path d="M83.5126 49.054C82.6395 49.7758 82.7202 51.1436 83.3208 52.0117C84.0578 53.0767 85.4155 53.4452 86.6218 53.6824C86.9398 53.7429 87.0811 53.2534 86.7581 53.1928C85.7234 52.9909 84.507 52.7133 83.8205 51.8401C83.2805 51.1537 83.1442 50.018 83.871 49.4174C84.1234 49.2105 83.76 48.8521 83.5126 49.059V49.054Z" fill="white"/>
<path d="M60.8638 51.3708C63.6146 49.3216 67.0215 48.2313 70.4487 48.2768C71.4228 48.2869 72.3919 48.3929 73.3509 48.5948C73.6688 48.6604 73.8102 48.1708 73.4871 48.1052C70.0196 47.3834 66.3553 47.8528 63.1654 49.3872C62.267 49.8212 61.414 50.3361 60.6115 50.9367C60.354 51.1285 60.6064 51.5727 60.8689 51.3758L60.8638 51.3708Z" fill="white"/>
<path d="M22.7864 41.9181C20.4999 42.5541 19.0059 44.5932 17.951 46.5969C16.7346 48.9137 15.8564 51.4272 15.4526 54.0165C15.0539 56.5704 15.1094 59.2102 15.8211 61.7035C16.457 63.9294 17.628 65.9483 19.2633 67.5937C20.7977 69.1332 22.7106 70.3344 24.8053 70.9351C26.8393 71.5206 29.2419 71.5862 31.1901 70.6575C32.1239 70.2133 32.9769 69.436 33.1535 68.371C33.3453 67.2253 32.7295 66.13 31.8866 65.3982C30.9125 64.5502 29.6557 64.202 28.4292 63.884C27.2179 63.571 26.057 63.2228 24.987 62.5565C23.1144 61.3856 21.6608 59.5382 20.9693 57.4386C20.0961 54.7887 20.6564 52.0279 21.4993 49.4436C21.7214 48.7673 21.9586 48.101 22.2009 47.4348C22.3119 47.1269 21.8223 46.9906 21.7113 47.2985C20.7674 49.913 19.7882 52.6689 20.0507 55.5004C20.2476 57.6253 21.1813 59.6341 22.6046 61.214C23.3214 62.0114 24.1744 62.6979 25.1081 63.2177C26.163 63.8083 27.3037 64.1162 28.4646 64.419C29.6456 64.7269 30.8671 65.0802 31.7504 65.9736C32.5277 66.7609 32.987 67.9319 32.4015 68.9666C31.8816 69.8802 30.8065 70.3647 29.8273 70.6019C28.8482 70.8392 27.7579 70.9048 26.7182 70.7988C24.6185 70.5868 22.6097 69.6833 20.9441 68.4114C19.2431 67.1143 17.8602 65.3931 16.9769 63.4449C15.9422 61.1685 15.5889 58.6045 15.7252 56.1212C15.8614 53.5875 16.5025 51.0891 17.4867 48.7572C17.9561 47.6417 18.4961 46.5414 19.1624 45.5219C19.7681 44.5932 20.505 43.7099 21.4387 43.0941C21.893 42.7913 22.3826 42.5641 22.9075 42.4228C23.2255 42.337 23.0892 41.8424 22.7712 41.9332L22.7864 41.9181Z" fill="white"/>
<path d="M82.4046 37.5751C79.5226 39.4981 77.3876 42.4811 76.5043 45.8325C76.3983 46.2363 76.3075 46.6451 76.2419 47.054C76.1662 47.5234 76.0955 48.018 76.2621 48.4773C76.4892 49.1082 77.0646 49.4666 77.7106 49.5625C78.4072 49.6685 79.1441 49.5423 79.8002 49.3051C80.6482 49.0022 81.4658 48.5883 82.2482 48.1442C84.0904 47.1095 85.7611 45.7719 87.1794 44.2022C87.3964 43.96 87.0381 43.5966 86.821 43.8439C85.6501 45.141 84.3075 46.2716 82.8336 47.2054C82.1068 47.6647 81.3447 48.0786 80.5624 48.4369C79.9062 48.7398 79.2299 49.0174 78.5031 49.0779C77.9529 49.1234 77.2564 49.0729 76.898 48.5883C76.6457 48.2502 76.6507 47.806 76.7062 47.4073C76.7617 47.0085 76.8475 46.5947 76.9434 46.1959C77.327 44.6464 77.9832 43.1675 78.8665 41.8401C79.8658 40.331 81.163 39.0237 82.6671 38.0193C82.9396 37.8376 82.6822 37.3985 82.4097 37.5802L82.4046 37.5751Z" fill="white"/>
<path d="M95.997 53.7429C95.366 55.2571 96.4108 56.9328 97.7837 57.599C99.3383 58.3612 101.09 57.7252 102.205 56.4987C105.128 53.2785 103.134 48.4937 101.413 45.1978C100.333 43.1233 99.0001 41.1801 97.4607 39.4186C97.2436 39.1713 96.8853 39.5347 97.1023 39.777C98.3591 41.2155 99.4695 42.7801 100.418 44.4356C101.367 46.0912 102.24 47.9284 102.775 49.806C103.275 51.5725 103.432 53.5561 102.503 55.2116C101.791 56.4886 100.368 57.6545 98.8133 57.4022C97.2638 57.1448 95.8304 55.4539 96.4916 53.8741C96.6178 53.5713 96.1231 53.44 96.002 53.7378L95.997 53.7429Z" fill="white"/>
</svg>
