<svg width="33" height="32" viewBox="0 0 33 32" fill="none" xmlns="http://www.w3.org/2000/svg">
<path d="M29.0909 0H2.90909C1.30244 0 0 1.30244 0 2.90909V29.0909C0 30.6976 1.30244 32 2.90909 32H29.0909C30.6976 32 32 30.6976 32 29.0909V2.90909C32 1.30244 30.6976 0 29.0909 0Z" fill="black"/>
<path d="M4.60245 22.7285C6.47267 26.5518 11.2162 28.1311 15.1766 26.2142C19.1468 24.2925 20.8631 19.6022 19.0026 15.7585L18.5263 14.7744C17.7602 13.1916 18.4668 11.26 20.1016 10.4688C21.7366 9.67738 23.6899 10.3214 24.456 11.9042C24.6753 12.3571 25.2322 12.5408 25.7 12.3143L28.2413 11.0843C28.7094 10.8577 28.9107 10.3071 28.6915 9.85414C26.831 6.01033 22.0875 4.44643 18.1171 6.36822C14.147 8.28984 12.4307 12.9805 14.2911 16.8243L14.7675 17.8084C15.5337 19.3914 14.8266 21.3224 13.1921 22.1136C11.5574 22.9048 9.60418 22.2614 8.83799 20.6784C8.61876 20.2255 8.06163 20.0418 7.59385 20.2682L5.05253 21.4983C4.58491 21.725 4.38322 22.2756 4.60245 22.7285Z" fill="white"/>
</svg>
