<svg width="78" height="78" viewBox="0 0 78 78" fill="none" xmlns="http://www.w3.org/2000/svg">
<path fill-rule="evenodd" clip-rule="evenodd" d="M77.4961 38.5071C77.4961 59.7822 60.2642 77.0142 38.989 77.0142C17.7139 77.0142 0.481934 59.7822 0.481934 38.5071C0.481934 17.2319 17.7139 0 38.989 0C60.2642 0 77.4961 17.2319 77.4961 38.5071ZM31.0951 71.2862V64.1143C21.9496 66.1648 19.9761 60.0133 19.9761 60.0133C18.5032 56.0278 16.3276 55.0074 16.3276 55.0074C13.3337 52.8991 16.5442 52.8991 16.5442 52.8991C19.8654 53.1253 21.5983 56.4321 21.5983 56.4321C24.5392 61.6787 29.2997 60.1914 31.1769 59.2817C31.4513 57.0579 32.3225 55.5224 33.2467 54.6656C25.9303 53.8666 18.277 50.9064 18.277 37.6744C18.277 33.9151 19.5814 30.8394 21.656 28.4327C21.3287 27.5807 20.1831 24.0477 21.9833 19.3354C21.9833 19.3354 24.7607 18.4256 31.0325 22.8684C33.712 22.1181 36.4808 21.7344 39.2634 21.7276C42.0407 21.7276 44.895 22.1271 47.4943 22.8684C53.7517 18.4256 56.5434 19.3354 56.5434 19.3354C58.3436 24.0621 57.1981 27.6144 56.8707 28.4327C58.9983 30.8249 60.2497 33.9199 60.2497 37.6744C60.2497 50.9112 52.5483 53.7992 45.232 54.6656C46.4353 55.7486 47.6435 57.7991 47.6435 61.0674V71.1274C54.8341 69.2254 61.1933 64.9976 65.7296 59.1031C70.2658 53.2086 72.7241 45.9787 72.7212 38.5408C72.7212 19.913 57.6553 4.84708 39.0275 4.84708C20.3997 4.84708 5.33383 19.913 5.33383 38.5408C5.33383 54.4249 16.3565 67.758 31.1336 71.3199L31.0951 71.2862Z" fill="#1E3932"/>
</svg>
