<svg width="398" height="412" viewBox="0 0 398 412" fill="none" xmlns="http://www.w3.org/2000/svg">
<path d="M162.204 118.515L147.67 28.4182L193.056 64.2276L220.849 0L248.514 64.9923L294.282 28.9279L286.888 118.515H162.204Z" fill="#CFAD52"/>
<path d="M125.359 151.649C109.933 176.626 122.81 183.38 89.2802 193.702C55.7506 204.025 42.8743 200.584 23.1135 203.133C3.35274 205.681 -4.42408 225.434 2.46032 240.981C9.34471 256.401 21.3287 294.249 56.643 302.023C91.8299 309.796 140.913 286.603 147.798 279.722C154.682 272.84 199.303 252.195 189.869 284.054C180.435 315.913 159.781 412 159.781 412L397.038 248.755C397.038 248.755 334.569 159.167 286.633 127.563H161.184C148.562 130.749 134.921 136.229 125.359 151.649Z" fill="white"/>
</svg>
